<?xml version="1.0" encoding="UTF-8"?>
<svg xmlns="http://www.w3.org/2000/svg" version="1.1" viewBox="0 0 1480.95 1180.95">
  <defs>
    <style>
      .cls-1 {
        display: none;
        fill: #fff;
      }
    </style>
  </defs>
  <!-- Generator: Adobe Illustrator 28.6.0, SVG Export Plug-In . SVG Version: 1.2.0 Build 709)  -->
  <g>
    <g id="Layer_1">
      <g>
        <rect class="cls-1" x="2135.73" y="-570.68" width="3000" height="3000"/>
        <g>
          <path d="M1320.12,382.51c-9.75-20.4-85.85-103.68-86.26-105.64-.21-.98-1.53-5.22-2.8-9.22l12.93-6.6-15.4-1.1s-40.16-28.27-40.58-30.22c-.41-1.96,4.96-53.1,4.96-53.1l-19.11,27.17-5.37-31.87-20.71,22.75s-107.7-45.99-178.42,2.61c42.41-15.07,103.18-4.43,88.37,2.78-84.63,7.66-144.83,29.55-152.08,48.43,35.23-16.87,90.11-18,79.83-8.68-10.28,9.31-79.07,29.96-178.32,17.56,5.87,18.16,97.33,29.13,97.33,29.13,0,0-130.73,11.77-147.49,55.63,27.05-16.94,93.5-30.97,96.23-13.17-23.88,25.46-130.16,45.85-164.37,33.68,20.54,27.99,148.46,16.64,148.46,16.64-142.8,73.01-301.18-29.31-409.31,80.61-129.75-1.75-148.62,113.65-197.51,174.55-44.81,23.72-103.52,36.72-155.49,1.96,18.93,22.04,67.57,40.06,118.63,27.95-2.31,1.01-4.66,1.92-7.12,2.72-33.52,10.82-97.8,16.55-156.29-46.99,23.89,81.69,70.73,124.76,119.33,137.54-56.41,4.68-88.19-21.36-100.64-28.87,37.43,41.97,100.94,49.59,162.7,29.2,11.37-2.9,22.29-7.42,32.45-13.43,47.48-23.74,90.84-64.18,116.45-118.28-11.72,12.82-27.59,29.66-50.37,43.1,48.82-87.48,28.73-162.94,98.02-177.28-40.47,67.25,24.82,134.2,71.04,183.59-48.94-29.76-79.31-76.62-89.26-101.91,3.15,59.38,73.36,118.41,126.39,148.62.32.72.61,1.43.86,2.12,9.41,25.42,16.72,42.46,20.1,77.86,0,15.83,3.75,47.25,3.75,47.25,0,0,56.51,15.46,79.29,94.35,4.84,16.76,19.53,2.3,23.99,15.36,1.87,5.46,1.58,7.49-3.21,10.54.33,6.39,1.36,25.4,1.36,25.4,29.94-.13,46.18-2.7,68.35-11.02,0,0-6.39-30.29-56.85-63.02-22.44-26.1-47.83-62.45-53.51-95.35-4.52-28.84-1.67-54.15-1.06-64.41,2.94-48.84,15.19-103.66,35.17-126.95h0c1.81-3.26,4.23-6.22,7.08-8.94,94.12,51.3,244.9,36.29,293.95,34.43,40.63,33.9,117.75,70.73,119.95,81.18-8.56,17.46-53.79,40.95-93.68,28.45-8.48,13.02-16.34,18.49-23.48,13.67-8.12-14.31-17.21-27.53-42.31-20.71-10.38,18.53-22.83,60.29-15.53,65.89,13.01-1.22,37.57-13.04,43.49-9.18,9.74-4.61,45.54-9.11,61.21-.17,21.62-11.2,62.55-39.74,99.12-45.42,18.43-16.65,18.86-41.24,18.86-41.24,0,0-35.81-42.71-41.14-55.88l-100.17-16.22-.28-.24c60.3,1.4,175.82,7.04,194.06,23.5,20.17,18.2,29.7,76.24,11.74,87.86,5.34,8.39,13.54,23,4.71,28.77-12.55-1.43-18.78-3.52-18.78-3.52l-16.04,25.51s24.41,54.38,29.59,56.35c12.21-17.89,44.09-71.57,56.67-92.6-9.07-30.06-23.47-82.14-22.96-108.79-14.38-26.23-22.56-37.6-22.56-37.6-18.68-6.27-67.42-25.23-108.97-45.56,2.78-2.55,5.25-5.73,7.46-9.39l97.78,44.5-90.84-60.36c9.09-28.67,7.89-70.23-2.91-98.48,0,0,24.01-55.99,38.56-97.68,15.86,6.62,48.05,2.73,61.76-4.9-27.73,2.75-46.09-3.25-56.92-9.56.49-1.53.95-3.04,1.39-4.49,18.2,4.83,33.85,14.46,54.93,7.97,26.41,15.52,74.4,33.29,74.4,33.29.25,10.84,25.87,25.84,25.87,25.84l31.43-15.48s-3.2-18.38,8.12-22.81Z"/>
          <path d="M878.83,61.69c-4.99-.6-10.01-1.15-15.05-1.61-257.55-23.38-487.72,148.92-543.55,394.34,17.47-11.74,38.02-20.87,62.6-25.78C436.45,205.07,644.15,47.44,878.83,61.69ZM452.04,321.94c96.22-147.86,268.99-238.91,456.91-221.85,19.84,1.8,39.28,4.79,58.29,8.82-25.86-7.16-52.71-12.13-80.38-14.64-182.69-16.58-349.87,77.84-434.82,227.67ZM806.54,1019.82c-209.02-18.97-374.54-169.12-422.77-361.82-.06.11-.13.22-.19.33-3.64,6.2-59.73,99.32-152.77,117.78,0,0,47.97,3.42,105.16-39.28,64.11,182.81,230.03,320.91,435.56,339.56,280.65,25.47,528.81-181.39,554.29-462.04.46-5.04.82-10.07,1.13-15.09-31.08,256.84-260.99,444.09-520.4,420.55Z"/>
        </g>
      </g>
    </g>
  </g>
</svg>